<?xml version="1.0" encoding="UTF-8"?>
<svg xmlns="http://www.w3.org/2000/svg" xmlns:xlink="http://www.w3.org/1999/xlink" width="16pt" height="16pt" viewBox="0 0 24 24" version="1.1">
<g id="surface1">
<path style=" stroke:none;fill-rule:nonzero;fill:rgb(5.490196%,11.372549%,14.509804%);fill-opacity:1;" d="M 12 0 C 5.371094 0 0 5.371094 0 12 C 0 18.628906 5.371094 24 12 24 C 18.628906 24 24 18.628906 24 12 C 23.988281 5.378906 18.621094 0.0117188 12 0 Z M 17.050781 12.402344 L 9.371094 17.203125 C 9.292969 17.25 9.207031 17.273438 9.121094 17.28125 C 9.039062 17.28125 8.960938 17.261719 8.890625 17.222656 C 8.738281 17.136719 8.640625 16.976562 8.640625 16.800781 L 8.640625 7.199219 C 8.640625 7.023438 8.738281 6.863281 8.890625 6.777344 C 9.039062 6.6875 9.230469 6.6875 9.378906 6.777344 L 17.058594 11.578125 C 17.199219 11.664062 17.289062 11.816406 17.289062 11.980469 C 17.289062 12.144531 17.199219 12.300781 17.058594 12.382812 Z M 17.050781 12.402344 "/>
</g>
</svg>
